<?xml version="1.0" encoding="UTF-8"?>
<svg version="1.1" xmlns="http://www.w3.org/2000/svg" width="282" height="282">
<path d="M0 0 C0.62132812 0.2160791 1.24265625 0.4321582 1.8828125 0.65478516 C18.49913648 6.46053489 32.67387206 14.46027133 46 26 C46.88816406 26.68320312 47.77632812 27.36640625 48.69140625 28.0703125 C73.94834493 47.54294517 91.00741791 79.77715971 96 111 C96.18304688 112.12019531 96.36609375 113.24039063 96.5546875 114.39453125 C97.28425549 120.50848578 97.2236413 126.6746144 97.24023438 132.82373047 C97.2498543 134.96753048 97.28091155 137.11033363 97.3125 139.25390625 C97.46304026 159.00050399 92.83540754 178.35132881 84 196 C83.53722656 196.99644531 83.07445312 197.99289063 82.59765625 199.01953125 C76.51756903 211.87024191 68.31959093 222.33294559 58.4921875 232.45654297 C57.07213101 233.92539067 55.67597758 235.41723664 54.28125 236.91015625 C47.49582985 244.00491173 40.2000152 249.67452051 32 255 C30.92234375 255.69996094 29.8446875 256.39992188 28.734375 257.12109375 C-2.22733657 275.94023834 -42.36393947 281.63039605 -77.58203125 273.1953125 C-79.05710268 272.80591149 -80.5299242 272.40785538 -82 272 C-82.68497559 271.81276367 -83.36995117 271.62552734 -84.07568359 271.43261719 C-107.9156272 264.68777118 -127.73125742 251.51085085 -145 234 C-145.81573486 233.18595703 -145.81573486 233.18595703 -146.64794922 232.35546875 C-172.7682717 206.1154381 -185.21083923 171.72155977 -185.25 135.0625 C-185.25133942 134.32522675 -185.25267883 133.58795349 -185.25405884 132.82833862 C-185.2497635 121.94380486 -184.77925067 111.58155073 -182 101 C-181.76023438 100.07445313 -181.52046875 99.14890625 -181.2734375 98.1953125 C-180.58525582 95.76777054 -179.8060505 93.39062783 -179 91 C-178.72542969 90.071875 -178.45085937 89.14375 -178.16796875 88.1875 C-175.72481114 80.20305301 -172.18106552 73.20932696 -168 66 C-167.41476563 64.96101563 -166.82953125 63.92203125 -166.2265625 62.8515625 C-159.56945882 51.47549926 -151.29770613 39.86131579 -140.9453125 31.56640625 C-138.57695317 29.65935386 -136.40410918 27.58111112 -134.1875 25.5 C-129.1650479 20.96979435 -123.80071165 17.44604133 -118 14 C-116.90933228 13.31744141 -116.90933228 13.31744141 -115.79663086 12.62109375 C-109.908323 8.97867468 -103.97253643 5.98585224 -97.5625 3.375 C-96.61745605 2.98892578 -95.67241211 2.60285156 -94.69873047 2.20507812 C-85.67528956 -1.34819394 -76.56938633 -3.53221097 -67 -5 C-65.79730469 -5.19078125 -64.59460938 -5.3815625 -63.35546875 -5.578125 C-42.81899363 -7.99892757 -19.52938852 -7.181592 0 0 Z M-90 14 C-90.85078125 14.29519531 -91.7015625 14.59039062 -92.578125 14.89453125 C-106.07888217 19.78967334 -117.99665792 27.93214884 -129 37 C-129.72445312 37.57105469 -130.44890625 38.14210937 -131.1953125 38.73046875 C-140.23818999 46.14416386 -148.02395742 55.99278077 -154 66 C-154.47695312 66.79148438 -154.95390625 67.58296875 -155.4453125 68.3984375 C-172.84825824 98.73969892 -178.14249715 135.14947235 -169 169 C-168.81808105 169.67708008 -168.63616211 170.35416016 -168.44873047 171.05175781 C-162.39778095 192.71404894 -149.87188277 213.12811723 -134 229 C-129.82148181 228.68521383 -126.99574758 226.95771001 -123.50390625 224.75 C-116.21763571 220.37935264 -108.60485211 217.65021288 -100.62304688 214.828125 C-90.42388967 211.09065871 -76.8747415 205.42509307 -72 195 C-71.34957333 190.89338455 -71.44467697 186.7780747 -71.4375 182.625 C-71.40076172 181.51382813 -71.36402344 180.40265625 -71.32617188 179.2578125 C-71.26161949 172.071557 -71.26161949 172.071557 -74.86328125 166.1171875 C-75.40670166 165.59044434 -75.95012207 165.06370117 -76.51000977 164.52099609 C-78.79605532 162.18737922 -79.67130843 159.54397895 -80.75 156.5 C-81.15605469 155.37980469 -81.56210938 154.25960937 -81.98046875 153.10546875 C-82.77730548 150.67832238 -83.4646406 148.29231683 -84.0625 145.8125 C-84.371875 144.884375 -84.68125 143.95625 -85 143 C-85.63421875 142.68289062 -86.2684375 142.36578125 -86.921875 142.0390625 C-90.62386032 140.18806984 -91.70590667 136.77850836 -93 133 C-94.10369277 127.7276298 -94.58528248 123.51641369 -92.625 118.4375 C-92.08875 117.633125 -91.5525 116.82875 -91 116 C-89.56559245 113.13118491 -90.65252409 111.18338075 -91.44824219 108.21582031 C-95.81627977 90.67409064 -96.18000689 70.51793458 -87.1875 54.4375 C-80.58349775 44.51506875 -70.48092486 39.59945468 -59 37 C-46.8240384 34.82572114 -33.24136196 34.25912466 -22.4375 41.0625 C-20 43 -20 43 -19 45 C-17.5171895 45.45602307 -16.0118957 45.83985732 -14.5 46.1875 C-7.00561291 48.34253835 -1.23845562 52.48254428 2.9375 59.125 C10.83448615 75.16405119 7.45769713 97.20561124 2.29296875 113.51171875 C1.90621942 116.79650976 3.02545846 117.45095859 5 120 C5.93204214 126.99031604 5.84791997 133.97159205 2 140 C0.51886719 140.86044922 0.51886719 140.86044922 -0.9921875 141.73828125 C-4.83163405 144.6253456 -5.08387467 146.47757253 -6 151.125 C-7.68349976 158.71922863 -10.39439171 165.39439171 -16 171 C-16.53775634 174.66366874 -16.4633127 178.36396107 -16.5 182.0625 C-16.54125 183.07505859 -16.5825 184.08761719 -16.625 185.13085938 C-16.70192946 192.58820921 -15.08604719 197.46179447 -10 203 C-1.17676997 210.06461593 10.65323748 213.69202444 21 218 C29.13755046 221.41589796 37.16866532 224.92193171 45 229 C68.31705734 207.20362031 83.6867668 176.33650992 85.12597656 144.18579102 C85.46012075 130.79358822 85.39691735 118.02608226 82 105 C81.75056641 103.98317139 81.75056641 103.98317139 81.49609375 102.94580078 C78.74432919 91.83427742 74.49478523 82.01499317 69 72 C68.42121094 70.9171875 67.84242188 69.834375 67.24609375 68.71875 C63.22384585 61.4768373 58.38492104 55.27389282 53 49 C52.14430784 47.9178712 51.28982772 46.83478074 50.4375 45.75 C38.82926481 32.65352953 22.88328014 23.01092966 7 16 C5.91332031 15.51917969 4.82664063 15.03835937 3.70703125 14.54296875 C-25.70908055 2.44764825 -60.44620161 2.57493404 -90 14 Z " fill="#2B3C4E" transform="translate(185,6)"/>
</svg>
