<?xml version="1.0" encoding="UTF-8"?>
<svg version="1.1" xmlns="http://www.w3.org/2000/svg" width="1229" height="1228">
<path d="M0 0 C1.37859971 -0.0019558 2.75719886 -0.00434574 4.13579714 -0.00712797 C7.92176042 -0.01350265 11.70770241 -0.01369163 15.49367003 -0.01285056 C19.61376112 -0.01302057 23.73384471 -0.01893238 27.85393202 -0.02409142 C36.02490582 -0.03340521 44.19587419 -0.03733742 52.36685263 -0.03961039 C62.15508223 -0.04257572 71.94330467 -0.05127519 81.73153052 -0.06002467 C105.39215761 -0.08085852 129.05278594 -0.09133794 152.71342007 -0.10015428 C163.91214673 -0.10436305 175.11087285 -0.10958479 186.30959906 -0.11483881 C224.66114057 -0.13272974 263.01268224 -0.14772396 301.36422729 -0.155159 C303.77155458 -0.15563375 306.17888187 -0.15610964 308.58620916 -0.15658666 C310.37690024 -0.15694122 310.37690024 -0.15694122 312.20376691 -0.15730295 C318.25190105 -0.15850412 324.30003519 -0.15971958 330.34816933 -0.16094494 C331.54843091 -0.16118509 332.74869249 -0.16142524 333.98532564 -0.16167267 C372.87742898 -0.16956092 411.76950177 -0.1929826 450.66159178 -0.22550088 C491.80133553 -0.25983549 532.94106142 -0.27951358 574.08081973 -0.28280324 C578.60143066 -0.28322076 583.12204159 -0.28370032 587.64265251 -0.28422642 C588.75571602 -0.28434961 589.86877954 -0.2844728 591.01557225 -0.28459973 C608.89324198 -0.28692742 626.77087612 -0.3025635 644.64853318 -0.32306826 C662.63732452 -0.34337226 680.62607332 -0.34878201 698.61487399 -0.33929763 C709.28719556 -0.33410016 719.95937506 -0.33987673 730.63167605 -0.3618323 C737.77968483 -0.37541949 744.92759668 -0.37419413 752.0756066 -0.36143034 C756.1359995 -0.35458586 760.19612238 -0.35368169 764.25649028 -0.37099043 C820.52339611 -0.59571583 874.71676882 14.3875495 918.36477089 51.13422108 C919.23174599 51.85110096 919.23174599 51.85110096 920.11623573 52.58246326 C932.41754188 62.75476167 943.52762147 73.52874111 953.36477089 86.13422108 C954.56553261 87.62695545 954.56553261 87.62695545 955.79055214 89.14984608 C988.01529448 129.56144889 1004.5701102 180.45911491 1004.49619865 231.90712643 C1004.49785229 233.26394375 1004.49994038 234.6207606 1004.50241876 235.97757667 C1004.5079437 239.68906862 1004.50732072 243.40053732 1004.50564117 247.11203205 C1004.50490628 251.15659322 1004.50994186 255.20114803 1004.51421618 259.24570644 C1004.52177557 267.26013316 1004.5239882 275.27455322 1004.52454524 283.28898314 C1004.52546093 292.89221168 1004.5321346 302.49543411 1004.53889206 312.09866001 C1004.55493398 335.30758106 1004.56085346 358.51650145 1004.56564081 381.72542705 C1004.56797875 392.7112613 1004.57158164 403.69709503 1004.57533619 414.68292887 C1004.58817062 452.31015609 1004.59888948 489.93738303 1004.60233879 527.56461239 C1004.60256042 529.92560839 1004.60278221 532.2866044 1004.60300414 534.6476004 C1004.60322478 537.01420613 1004.60344526 539.38081185 1004.60366559 541.74741757 C1004.60410814 546.49500442 1004.60455525 551.24259126 1004.60500526 555.99017811 C1004.60511466 557.16729915 1004.60522405 558.34442019 1004.60533675 559.55721157 C1004.60896581 597.70872254 1004.62488073 635.8602145 1004.64819563 674.01171819 C1004.672817 714.37510109 1004.68651272 754.73847312 1004.68770671 795.10186374 C1004.68787815 799.53675103 1004.68809358 803.97163832 1004.68834114 808.40652561 C1004.68839691 809.49846979 1004.68845268 810.59041397 1004.68851014 811.71544736 C1004.68965862 829.25375326 1004.70066343 846.79203957 1004.7152282 864.33033886 C1004.72962724 881.97483891 1004.732811 899.61931397 1004.72478822 917.26381828 C1004.72034788 927.73193759 1004.72412832 938.19997598 1004.74002672 948.66808458 C1004.74983519 955.67859787 1004.74854301 962.68905498 1004.7385905 969.69956785 C1004.73324038 973.68216193 1004.73235049 977.66460158 1004.74509922 981.64718236 C1004.92208686 1040.73777979 990.92426767 1096.97295656 952.36477089 1143.13422108 C951.64571571 1144.00554676 951.64571571 1144.00554676 950.91213417 1144.89447498 C940.75064135 1157.18006488 929.98797288 1168.34406726 917.36477089 1178.13422108 C916.47789589 1178.8380492 915.59102089 1179.54187733 914.67727089 1180.26703358 C900.9548427 1190.90191542 886.11669683 1199.86196977 870.36477089 1207.13422108 C869.71975624 1207.43666737 869.07474159 1207.73911366 868.41018105 1208.05072498 C834.17123263 1224.0164122 799.02895957 1228.62063062 761.56921802 1228.51962374 C757.45313494 1228.51191318 753.33708421 1228.52183253 749.22100592 1228.52935374 C742.02910841 1228.5401206 734.83727862 1228.53990248 727.64537811 1228.53221226 C716.95030207 1228.52080753 706.25528257 1228.52669559 695.56020685 1228.53583718 C676.4525518 1228.55159286 657.34492694 1228.55028183 638.23726906 1228.54160044 C621.51539775 1228.53404072 604.79353748 1228.53208975 588.07166481 1228.53566837 C586.96057453 1228.53589753 585.84948426 1228.53612668 584.70472458 1228.53636278 C580.19395076 1228.53729687 575.68317695 1228.53825207 571.17240314 1228.53924207 C528.8956965 1228.54841005 486.61900903 1228.54011302 444.34230535 1228.52395138 C406.81804531 1228.50971558 369.29381582 1228.5109895 331.76955605 1228.52533436 C289.56800509 1228.54141351 247.36647106 1228.54775975 205.16491747 1228.53849757 C200.66257064 1228.53753548 196.16022381 1228.53659695 191.65787697 1228.53566837 C190.54936107 1228.53543114 189.44084517 1228.53519391 188.29873788 1228.53494949 C171.59124695 1228.53154337 154.8837683 1228.53551614 138.17627907 1228.54310703 C119.17077871 1228.55169919 100.16531314 1228.5495097 81.1598171 1228.5332648 C70.53549043 1228.52448216 59.91123917 1228.52384285 49.28691452 1228.53520332 C42.17648961 1228.54196511 35.06612475 1228.53768171 27.95570869 1228.52468902 C23.91378983 1228.51760195 19.87201999 1228.5150083 15.8301062 1228.52590697 C-38.34584865 1228.66098161 -90.59070542 1215.59584881 -133.63522911 1181.13422108 C-134.46796349 1180.49226795 -135.30069786 1179.85031483 -136.15866661 1179.18890858 C-185.1003775 1141.05451555 -216.01150569 1084.49577966 -223.63522911 1023.13422108 C-224.56833424 1014.88043499 -224.77849345 1006.72065928 -224.76665688 998.41910076 C-224.76830997 997.0563246 -224.77039781 995.69354892 -224.77287698 994.33077401 C-224.77840897 990.59808194 -224.77777762 986.86541296 -224.77609939 983.13271811 C-224.7753652 979.06692875 -224.78039846 975.00114574 -224.78467441 970.93535912 C-224.79223785 962.87664561 -224.79444662 954.81793872 -224.79500346 946.75922202 C-224.79591875 937.10384122 -224.80259125 927.44846651 -224.80935029 917.79308833 C-224.82539647 894.45716932 -224.83131221 871.12125097 -224.83609903 847.78532743 C-224.83843658 836.74026388 -224.84203943 825.69520084 -224.84579441 814.65013769 C-224.85862932 776.8232735 -224.86934806 738.99640959 -224.87279701 701.16954327 C-224.87301864 698.79576228 -224.87324043 696.4219813 -224.87346236 694.04820032 C-224.873683 691.66876293 -224.87390349 689.28932554 -224.87412381 686.90988815 C-224.87456636 682.13652126 -224.87501347 677.36315437 -224.87546349 672.58978748 C-224.87557288 671.40627343 -224.87568227 670.22275937 -224.87579497 669.00338125 C-224.87942408 630.64419025 -224.89533891 592.28501817 -224.91865385 553.92583442 C-224.9432727 513.34698593 -224.95697082 472.76814825 -224.95816493 432.18929207 C-224.95833638 427.73109666 -224.9585518 423.27290126 -224.95879936 418.81470585 C-224.95885513 417.71701515 -224.9589109 416.61932444 -224.95896836 415.48837038 C-224.96011708 397.85403927 -224.9711239 380.21972763 -224.98568642 362.58540309 C-225.00008223 344.8455807 -225.00327104 327.10578316 -224.99524644 309.36595653 C-224.99080456 298.83986584 -224.99459281 288.3138556 -225.01048495 277.78777555 C-225.02028801 270.73986108 -225.01900628 263.69200251 -225.00904872 256.64408846 C-225.00369477 252.63929493 -225.00282152 248.63465504 -225.01555744 244.62987469 C-225.08262336 222.13239285 -224.28520536 199.7760575 -218.88522911 177.82172108 C-218.62628868 176.74672352 -218.36734825 175.67172596 -218.10056114 174.56415272 C-207.86670456 133.35651683 -186.06829008 97.38643633 -156.63522911 67.13422108 C-155.4015963 65.84064686 -155.4015963 65.84064686 -154.14304161 64.52093983 C-140.38741686 50.34921966 -123.78188058 38.81978544 -106.63522911 29.13422108 C-105.99424278 28.76587147 -105.35325645 28.39752186 -104.6928463 28.01801014 C-73.07646656 9.96269274 -36.39775023 -0.04274409 0 0 Z " fill="#3A3E81" transform="translate(224.63522911071777,-0.13422107696533203)"/>
<path d="M0 0 C0 76.23 0 152.46 0 231 C56.43 231 112.86 231 171 231 C171.0928125 268.310625 171.0928125 268.310625 171.1875 306.375 C171.21481201 314.21942871 171.24212402 322.06385742 171.27026367 330.14599609 C171.28381348 339.74926758 171.28381348 339.74926758 171.28633118 344.24966431 C171.28911815 347.38262346 171.3003286 350.51542901 171.31672668 353.64834595 C171.33740875 357.65321234 171.34345423 361.65785758 171.33921683 365.66277242 C171.340102 367.12716705 171.34598876 368.59156995 171.35764539 370.05591846 C171.43726898 380.55198175 171.26386078 390.61103754 163.671875 398.59765625 C157.68346084 403.6206485 150.11171712 404.12656974 142.62185669 404.12025452 C141.35989975 404.12162918 140.09794281 404.12300385 138.79774475 404.12442017 C137.41220069 404.12088173 136.02665687 404.11724693 134.64111328 404.11352539 C133.17226666 404.11324311 131.7034199 404.11340205 130.23457336 404.1139679 C126.25777034 404.11425429 122.2809976 404.10838311 118.3042016 404.10139394 C114.14419872 404.09513408 109.9841951 404.09455452 105.82418823 404.09336853 C97.95141184 404.09026298 90.07864936 404.08206004 82.20587909 404.07201904 C73.24097894 404.06083382 64.27607812 404.05534138 55.31117272 404.05032361 C36.87410726 404.03987678 18.43705475 404.02229236 0 404 C0.0608072 424.10766388 0.13849633 444.21519707 0.23571491 464.32271862 C0.28048171 473.66117911 0.31993917 482.99960308 0.34643555 492.33813477 C0.36957181 500.48748269 0.40314048 508.63671317 0.44870156 516.78596765 C0.47242551 521.09196513 0.49128939 525.39784782 0.49761391 529.70390892 C0.56094579 567.80338516 2.75853885 609.37822782 31.15625 638.1875 C50.82525016 656.4713593 76.69127996 660.02938583 102.47851562 659.19091797 C125.8891702 657.92170472 146.62542602 650.18199104 167.34619141 639.71508789 C169 639 169 639 171 639 C171.04682617 658.85457638 171.08204071 678.70914147 171.10362434 698.56376171 C171.11391463 707.7836562 171.12793175 717.00351628 171.15087891 726.22338867 C171.17088185 734.26418419 171.18373275 742.30495476 171.18817699 750.34577447 C171.19077273 754.59899346 171.19682645 758.85214113 171.21146011 763.10533714 C171.22515341 767.11817696 171.2291992 771.13091688 171.22621536 775.14377785 C171.22676032 776.60736257 171.2306672 778.07095104 171.23841095 779.53451538 C171.3699895 805.71277626 171.3699895 805.71277626 164.7421875 813.47265625 C141.69351001 836.11595499 88.47816313 836.76543919 58 839 C56.62932373 839.10586426 56.62932373 839.10586426 55.23095703 839.21386719 C48.82263582 839.68541584 42.42369689 839.87883131 36 840 C35.27466064 840.01567017 34.54932129 840.03134033 33.80200195 840.04748535 C-3.03845006 840.83335998 -39.16924741 839.26353173 -75 830 C-75.91716797 829.76555176 -76.83433594 829.53110352 -77.77929688 829.28955078 C-128.48185917 816.01432337 -171.14134555 784.82362004 -198.0625 739.875 C-211.42224285 716.91765115 -219.97990594 691.39151809 -225.47363281 665.4765625 C-226.00209797 662.99012902 -226.55864128 660.51107825 -227.1171875 658.03125 C-229.64000393 646.50096076 -230.9529058 635.03951924 -231.76635742 623.26977539 C-231.95751267 620.99150346 -231.95751267 620.99150346 -232.49169922 618.76171875 C-233.1968622 614.93040098 -233.35492191 611.0987236 -233.52734375 607.21484375 C-233.56866928 606.30741928 -233.60999481 605.39999481 -233.65257263 604.46507263 C-234.20771714 591.25345112 -234.35713593 578.02972676 -234.53242874 564.80872345 C-234.56280438 562.53976402 -234.59458468 560.27082783 -234.62667847 558.00189209 C-235.0708403 526.3342514 -235.11319384 494.67014722 -235 463 C-220.85053205 457.2143542 -206.70119767 451.43318657 -192.47134399 445.84747314 C-189.33556848 444.61649696 -186.20132784 443.38163043 -183.06694031 442.14712524 C-181.37048225 441.47897115 -179.67395875 440.81098321 -177.97737122 440.14315796 C-167.4165514 435.98526113 -156.86490358 431.80419803 -146.3125 427.625 C-142.27088222 426.02461611 -138.22920512 424.42438207 -134.1875 422.82421875 C-133.18618042 422.42777664 -132.18486084 422.03133453 -131.15319824 421.62287903 C-118.20022304 416.49504201 -105.24437402 411.37447213 -92.28833008 406.25439453 C-91.42784058 405.91429855 -90.56735107 405.57420258 -89.68078613 405.22380066 C-88.08625847 404.59359242 -86.49169723 403.96346915 -84.89709473 403.33345032 C-84.18960083 403.05381943 -83.48210693 402.77418854 -82.75317383 402.48608398 C-82.14516434 402.24582993 -81.53715485 402.00557587 -80.91072083 401.75804138 C-78.60525978 400.84339448 -76.30253714 399.9219795 -74 399 C-91.71827522 398.89357612 -109.42353074 399.20688781 -127.13690472 399.57285571 C-131.15034147 399.6553276 -135.16382743 399.73533935 -139.17730713 399.81568909 C-145.9313864 399.95124818 -152.68543058 400.08845135 -159.43945312 400.22680664 C-167.96693342 400.40148285 -176.49446625 400.57343649 -185.02201939 400.74451542 C-226.2529212 401.5642743 -226.2529212 401.5642743 -267.48078346 402.52170563 C-282.47518979 402.89760303 -297.46342305 403.18649068 -312.46362305 403.18530273 C-315.68615232 403.18758768 -318.90838559 403.20620889 -322.13085938 403.22460938 C-324.23437388 403.22752939 -326.33788993 403.22952345 -328.44140625 403.23046875 C-329.37876114 403.23765427 -330.31611603 403.24483978 -331.28187561 403.25224304 C-338.13508277 403.22841346 -344.81489209 402.80027839 -350.875 399.375 C-353.69565707 396.22250092 -354.83731228 393.02227105 -356 389 C-356.17444358 388.42925373 -356.34888716 387.85850746 -356.52861691 387.27046585 C-357.13182046 384.36507298 -357.12267195 381.64115915 -357.12025452 378.67254639 C-357.12162918 377.37126801 -357.12300385 376.06998962 -357.12442017 374.72927856 C-357.12088122 373.28924537 -357.11724642 371.84921242 -357.11352539 370.40917969 C-357.11324329 368.89136761 -357.1134017 367.3735554 -357.1139679 365.85574341 C-357.11425497 361.736265 -357.10837267 357.61681567 -357.10139394 353.49734402 C-357.09514553 349.1918547 -357.09455542 344.88636473 -357.09336853 340.58087158 C-357.09025961 332.42824269 -357.08205212 324.27562719 -357.07201904 316.1230042 C-357.05875507 305.10605386 -357.05335445 294.08909986 -357.04751682 283.07214355 C-357.03811195 265.71475233 -357.01819009 248.35738939 -357 231 C-316.41 231 -275.82 231 -234 231 C-234.02320313 220.625625 -234.04640625 210.25125 -234.0703125 199.5625 C-234.08053132 192.99088442 -234.09024203 186.4192746 -234.09765625 179.84765625 C-234.10951946 169.41648388 -234.12345928 158.98534385 -234.15087891 148.55419922 C-234.17083968 140.95696138 -234.18372282 133.35974979 -234.18817699 125.76248646 C-234.19077982 121.74137433 -234.19687928 117.72033729 -234.21146011 113.69924927 C-234.22508651 109.91049527 -234.22921246 106.12184693 -234.22621536 102.33307076 C-234.22676327 100.94640083 -234.23071051 99.55972719 -234.23841095 98.17307854 C-234.29353899 87.72916755 -234.02869989 78.30979297 -227 70 C-217.22073112 61.34430669 -202.84458615 57.36492288 -190.5625 53.75 C-189.20630584 53.34489408 -187.85018992 52.93952614 -186.49414062 52.53393555 C-154.88827014 43.13161043 -123.12814069 34.18372216 -91.35998535 25.34785461 C-84.57647806 23.45730087 -77.81647252 21.4933012 -71.0625 19.5 C-62.71709442 17.0469223 -54.34516567 14.73028724 -45.9375 12.5 C-35.48310248 9.72486402 -25.13107209 6.68489002 -14.80078125 3.48046875 C-3.54044118 0 -3.54044118 0 0 0 Z " fill="#FDFDFD" transform="translate(708,192)"/>
</svg>
