<?xml version="1.0" encoding="UTF-8"?>
<svg version="1.1" xmlns="http://www.w3.org/2000/svg" width="2548" height="699">
<path d="M0 0 C1.7453824 -0.00299585 3.49076414 -0.00639936 5.23614502 -0.01017761 C9.95734517 -0.01897806 14.67852717 -0.02135404 19.39973474 -0.0219934 C22.35458262 -0.0227061 25.30942594 -0.02484458 28.26427269 -0.02749062 C38.58748033 -0.03673066 48.91067508 -0.04082715 59.23388672 -0.04003906 C68.83312041 -0.0394385 78.43229786 -0.04998957 88.03151733 -0.06578273 C96.29339177 -0.07888777 104.5552479 -0.08422172 112.81713265 -0.08358365 C117.7425476 -0.08332956 122.66791251 -0.08613191 127.59331703 -0.0967617 C132.22842609 -0.10649281 136.86343779 -0.10648773 141.49855042 -0.09924507 C143.19154186 -0.09820547 144.88453953 -0.10052467 146.57752037 -0.10660553 C173.22885047 -0.19606922 173.22885047 -0.19606922 179.73706055 6.14526367 C182.82786163 12.68159209 183.17123594 18.30647745 183.14251709 25.46852112 C183.14986948 26.59027251 183.15722188 27.7120239 183.16479707 28.86776775 C183.18574799 32.61733305 183.18550293 36.36659159 183.18530273 40.11621094 C183.19595966 42.80911654 183.20778738 45.50199365 183.22105408 48.19488525 C183.2506403 54.74810695 183.26444509 61.30127118 183.27295652 67.85455043 C183.28352146 75.50602165 183.31007055 83.15741288 183.33730057 90.80883991 C183.38544765 104.4833807 183.41954931 118.15792023 183.44555664 131.83251953 C183.47072172 145.05586699 183.5050249 158.27914633 183.55004883 171.50244141 C183.55281306 172.31473312 183.55557728 173.12702483 183.55842528 173.96393145 C183.56256882 175.1803952 183.56256882 175.1803952 183.56679606 176.42143399 C183.57235924 178.05488717 183.57791956 179.68834036 183.58347702 181.32179356 C183.58759277 182.53058527 183.58759277 182.53058527 183.59179167 183.76379702 C183.6345115 196.41698047 183.66906633 209.07018794 183.70269214 221.72339835 C183.71489694 226.28446826 183.72820728 230.84553333 183.74233237 235.40659768 C183.76473509 242.65768286 183.78349473 249.90875888 183.79527131 257.15986974 C183.80069664 260.46600342 183.80819953 263.77209241 183.81926537 267.07821465 C183.85897622 279.29293495 183.82091699 291.48864525 183.31085205 303.69444275 C183.27398592 304.59121752 183.23711978 305.4879923 183.1991365 306.41194206 C180.91806273 354.30277258 163.50682879 399.48591006 127.73706055 432.14526367 C79.24379725 473.6230041 11.56028825 479.51998684 -49.56030273 475.1315918 C-70.77551709 473.41090031 -96.84730375 471.21289956 -114.70043945 458.39526367 C-120.54159246 449.98400335 -119.65522702 440.04349776 -119.5559082 430.29760742 C-119.55030373 428.67379653 -119.54603766 427.04998052 -119.54304504 425.42616272 C-119.53166318 421.17971464 -119.50225449 416.93358088 -119.46893311 412.68725586 C-119.43808754 408.34322357 -119.42450893 403.99913984 -119.40942383 399.6550293 C-119.37737743 391.15163084 -119.32626311 382.6484865 -119.26293945 374.14526367 C-115.19539712 375.43773042 -111.63140933 376.95578303 -107.91235352 379.06420898 C-90.26946529 389.03035568 -71.07484043 395.21457548 -51.26293945 399.14526367 C-50.12211914 399.37858398 -48.98129883 399.6119043 -47.8059082 399.85229492 C-16.15007207 405.50076889 19.8979871 402.50950249 47.08862305 384.13745117 C67.2220255 368.99285641 78.11053827 348.52844729 82.27636719 323.96533203 C82.78723954 319.72917955 82.86315344 315.62795046 82.8347168 311.36791992 C82.83330185 310.55657089 82.8318869 309.74522186 82.83042908 308.9092865 C82.82487411 306.3420732 82.81233022 303.77495019 82.79956055 301.20776367 C82.79453972 299.4571139 82.78997783 297.70646274 82.78588867 295.95581055 C82.77491948 291.68559397 82.75768637 287.41544408 82.73706055 283.14526367 C82.22119385 283.8682666 81.70532715 284.59126953 81.17382812 285.33618164 C62.98673555 310.62216838 39.3908316 327.15811141 8.5769043 333.01391602 C-10.07244779 336.01018318 -30.93007876 335.78842029 -49.26293945 331.14526367 C-49.91649414 330.98429199 -50.57004883 330.82332031 -51.2434082 330.6574707 C-67.62912461 326.46848967 -83.40278909 319.18643944 -96.26293945 308.14526367 C-97.26711914 307.29061523 -98.27129883 306.4359668 -99.3059082 305.55541992 C-123.7782758 284.20257285 -138.15987238 254.47474324 -144.57543945 222.95776367 C-144.79623169 221.87555542 -144.79623169 221.87555542 -145.02148438 220.77148438 C-147.79155127 205.95511136 -148.64337852 191.12242503 -148.57543945 176.08276367 C-148.57361664 175.23697754 -148.57179382 174.39119141 -148.56991577 173.51977539 C-148.51836796 159.23011668 -147.75888793 145.24189368 -145.26293945 131.14526367 C-145.09133301 130.17250488 -144.91972656 129.19974609 -144.74291992 128.19750977 C-140.12405339 103.02282972 -131.57836676 77.90169805 -116.26293945 57.14526367 C-115.5152832 56.10241211 -114.76762695 55.05956055 -113.99731445 53.98510742 C-102.5199905 38.2827567 -88.36019444 25.51875873 -71.26293945 16.14526367 C-70.2162207 15.56905273 -69.16950195 14.9928418 -68.09106445 14.39916992 C-46.73900427 3.16759981 -23.89475279 -0.00819905 0 0 Z M-28.3605957 99.65698242 C-47.16041806 125.31564107 -51.44359551 161.7504722 -46.89916992 192.6159668 C-43.38322173 214.11091771 -35.95634217 233.52366314 -18.32543945 247.45776367 C-3.61970388 257.7054613 12.86923472 259.94239013 30.35424805 257.67651367 C45.93195969 254.53855737 59.26185795 245.71578313 68.8269043 233.06713867 C83.84441212 210.09557251 85.64340758 184.90331129 86.29956055 158.20776367 C86.32007477 157.39400269 86.34058899 156.5802417 86.36172485 155.74182129 C86.49979927 150.20988847 86.623291 144.67774627 86.73706055 139.14526367 C86.77428223 137.3728833 86.77428223 137.3728833 86.81225586 135.56469727 C87.99108413 107.71921956 87.99108413 107.71921956 76.41674805 83.57495117 C65.8266536 74.56105683 50.28458164 75.77228708 37.19360352 75.7746582 C34.50561689 75.7702938 31.81928876 75.73388597 29.1315918 75.69604492 C6.16039766 75.54644405 -13.29082291 81.61254312 -28.3605957 99.65698242 Z " fill="#F48533" transform="translate(1814.262939453125,158.854736328125)"/>
<path d="M0 0 C1.15559418 -0.00101212 1.15559418 -0.00101212 2.33453369 -0.00204468 C49.3641271 0.06299224 92.96753841 12.51189798 127.125 45.875 C127.888125 46.65875 128.65125 47.4425 129.4375 48.25 C129.94845215 48.73976318 130.4594043 49.22952637 130.98583984 49.73413086 C135.30048991 53.90650617 138.93936104 58.27198181 142.375 63.1875 C143.14759155 64.28904419 143.14759155 64.28904419 143.93579102 65.4128418 C148.90578508 72.66498391 152.83165208 80.24816072 156.4375 88.25 C156.90671875 89.26320313 157.3759375 90.27640625 157.859375 91.3203125 C177.18955109 135.11151389 175.93828488 190.7904981 159.28613281 235.21728516 C144.75139938 272.54964841 117.04026007 302.76708333 80.32373047 319.19580078 C57.81814901 328.86707718 32.92693259 334.31442565 8.3984375 334.453125 C7.56306961 334.46013931 6.72770172 334.46715363 5.86701965 334.47438049 C3.18212435 334.49179881 0.49744975 334.4982338 -2.1875 334.5 C-3.10534271 334.50067474 -4.02318542 334.50134949 -4.96884155 334.50204468 C-54.68776446 334.44397007 -98.64904418 320.06791604 -134.25390625 284.56640625 C-144.73701396 273.5255119 -152.3443814 260.79263682 -158.72802734 247.04589844 C-159.45399853 245.4835099 -160.20349707 243.93209567 -160.95703125 242.3828125 C-165.61210694 232.18598003 -168.0977798 221.14139872 -170.5625 210.25 C-170.83803711 209.05165527 -170.83803711 209.05165527 -171.11914062 207.82910156 C-176.58359607 182.65124211 -176.29276887 151.34163187 -170.5625 126.25 C-170.25650879 124.86723877 -170.25650879 124.86723877 -169.94433594 123.45654297 C-160.65329477 82.45830236 -138.90667946 48.71845443 -103.125 26.0625 C-79.42924329 11.95855858 -53.83248863 4.55406738 -26.5625 1.25 C-25.45878052 1.10643066 -25.45878052 1.10643066 -24.33276367 0.95996094 C-16.24578911 0.0122487 -8.13109687 0.00642439 0 0 Z M-51.5625 96.25 C-72.30205647 120.00488205 -75.30200973 152.7296027 -73.28515625 182.91796875 C-71.47452591 204.65262406 -65.13516851 228.69884495 -48 243.45703125 C-30.44707406 256.89599017 -8.99290395 260.32672988 12.63037109 258.015625 C20.00035313 256.9078502 26.88014656 254.77353236 33.4375 251.25 C34.25863281 250.81816406 35.07976563 250.38632812 35.92578125 249.94140625 C51.84389258 241.0282301 60.59867323 225.39285334 65.4375 208.25 C68.48761791 196.0400042 70.11805016 183.8196566 70.4375 171.25 C70.47746094 170.29996094 70.51742187 169.34992188 70.55859375 168.37109375 C71.1713257 143.03282531 67.09507177 113.50851392 49.37109375 94.03515625 C34.15611651 79.98819746 15.25053668 75.50767759 -5.04296875 76.01171875 C-22.71646807 76.77134618 -39.01764559 83.66414934 -51.5625 96.25 Z " fill="#F48533" transform="translate(2233.5625,158.75)"/>
<path d="M0 0 C0.74678009 -0.00067474 1.49356018 -0.00134949 2.26296997 -0.00204468 C39.28004955 0.05078397 75.93915755 8.15221581 103.4375 34.5 C138.28632504 70.60057881 137.07999154 121.54419714 137.01865101 168.2821362 C137.01351591 173.4312518 137.01830176 178.58036098 137.02142334 183.72947693 C137.02503588 192.35018214 137.02033001 200.97085279 137.01074219 209.59155273 C136.9998039 219.54111517 137.00343287 229.49059596 137.014395 239.44015652 C137.02347559 248.02840737 137.02475113 256.61663371 137.01951766 265.20488781 C137.01640975 270.31549002 137.0159573 275.42605381 137.02259064 280.53665352 C137.0283768 285.32627573 137.02434403 290.11579231 137.01280212 294.90540314 C137.01016487 296.65813713 137.01090461 298.41088006 137.01532745 300.16361046 C137.02081989 302.56150882 137.01390502 304.95907168 137.00396729 307.35694885 C137.00842873 308.04420046 137.01289017 308.73145207 137.01748681 309.43952948 C136.9780268 314.37179687 136.20548295 318.56665777 134.75 323.25 C126.50945471 330.26575161 110.51266786 327.38216077 100.171875 327.34765625 C98.50750776 327.34578673 96.84313996 327.34436536 95.17877197 327.34336853 C90.83879017 327.33958535 86.49884286 327.3297919 82.15887451 327.31866455 C76.92986259 327.30654118 71.70083902 327.30202816 66.47181702 327.29621124 C58.56452083 327.28657711 50.65730004 327.26739142 42.75 327.25 C42.42 312.73 42.09 298.21 41.75 283.25 C38.78 287.21 35.81 291.17 32.75 295.25 C13.61778797 317.6620198 -8.95433602 330.6030274 -38.25 334.25 C-43.14943484 334.54119057 -48.03028953 334.58409285 -52.9375 334.5625 C-53.92437302 334.55976578 -53.92437302 334.55976578 -54.93118286 334.55697632 C-82.89093819 334.42680868 -107.15824985 326.66695339 -127.75 307.1875 C-148.51112544 285.90371685 -152.77191317 258.67604722 -152.4609375 229.97265625 C-152.02185688 202.98437998 -141.38314477 179.51136357 -122.0625 160.69140625 C-116.86900526 156.18316429 -111.19776757 152.65493772 -105.25 149.25 C-104.34967041 148.72792969 -104.34967041 148.72792969 -103.43115234 148.1953125 C-95.34090296 143.59085925 -87.00488533 140.27294019 -78.125 137.5 C-77.27494385 137.2304248 -76.4248877 136.96084961 -75.54907227 136.68310547 C-52.77596984 129.95379364 -28.48594659 127.98369425 -5.01873779 124.87615967 C-1.21031883 124.37017122 2.59723185 123.85780885 6.40479374 123.34541702 C10.08730145 122.85046841 13.77024364 122.35882002 17.45333672 121.86824799 C19.20491483 121.63467307 20.95637783 121.4002331 22.7077198 121.1648941 C25.13944348 120.83876387 27.57169725 120.51692705 30.00415039 120.19628906 C30.71837158 120.09971512 31.43259277 120.00314117 32.16845703 119.90364075 C35.72043649 119.44017538 39.16734563 119.14489022 42.75 119.25 C41.28357813 104.04552066 39.13863036 90.77216266 27.375 80 C23.71865443 77.07175788 20.11246409 74.95827882 15.75 73.25 C14.82960938 72.87617188 13.90921875 72.50234375 12.9609375 72.1171875 C-6.2720865 65.67615136 -29.68620867 68.00374598 -49.25 72.25 C-50.1363916 72.43804199 -51.0227832 72.62608398 -51.93603516 72.81982422 C-75.29104971 77.93521946 -96.86371401 87.41025553 -117.11328125 100.03515625 C-119.25 101.25 -119.25 101.25 -121.25 101.25 C-121.31977948 93.06090558 -121.37295211 84.87193721 -121.40543652 76.68261814 C-121.42103429 72.87920628 -121.44216348 69.07599915 -121.47631836 65.27270508 C-121.50912385 61.59629771 -121.5268972 57.92008617 -121.53463173 54.24354362 C-121.54013751 52.84703429 -121.55088814 51.45053461 -121.56719017 50.05410957 C-121.76252844 32.61405049 -121.76252844 32.61405049 -115.9296875 25.3671875 C-93.85351546 7.92508073 -54.22696244 4.28957919 -27.25 1.25 C-26.43837402 1.1557373 -25.62674805 1.06147461 -24.79052734 0.96435547 C-16.53788706 0.10287537 -8.28859022 0.00677238 0 0 Z M47.95703125 175.02856445 C46.97995461 175.15300934 46.97995461 175.15300934 45.98313904 175.27996826 C43.84239584 175.55378444 41.70243922 175.83325593 39.5625 176.11328125 C38.05763882 176.30804379 36.55275561 176.50263618 35.04785156 176.69706726 C31.89369562 177.10556357 28.73994361 177.51702755 25.58642578 177.93041992 C21.58459205 178.45465115 17.58169512 178.97019051 13.57841492 179.48324299 C10.46680402 179.88327916 7.3559213 180.28877292 4.24520874 180.69573021 C2.77215949 180.88766875 1.29887794 181.07783459 -0.1746521 181.26604652 C-31.03232093 185.1869637 -31.03232093 185.1869637 -55.25 203.25 C-61.19959075 213.62659806 -62.89350392 225.18478356 -60.125 236.8125 C-57.23247434 246.38216432 -51.44659747 253.72029258 -42.78125 258.65625 C-28.86016038 265.53678855 -12.80942275 266.08865543 1.8671875 261.21484375 C17.00568993 255.22492739 29.32524668 244.92904036 36.75 230.25 C43.22421201 215.11480756 44.17646379 199.52670117 43.75 183.25 C44.44480469 182.98445312 45.13960937 182.71890625 45.85546875 182.4453125 C49.00676076 181.14396924 52.02000171 179.66296617 55.0625 178.125 C56.13113281 177.58617187 57.19976563 177.04734375 58.30078125 176.4921875 C59.10902344 176.08226562 59.91726563 175.67234375 60.75 175.25 C60.75 174.92 60.75 174.59 60.75 174.25 C56.4066371 174.16793663 52.26394671 174.47342825 47.95703125 175.02856445 Z " fill="#393D80" transform="translate(789.25,158.75)"/>
<path d="M0 0 C0.6829715 -0.00100708 1.36594299 -0.00201416 2.0696106 -0.00305176 C13.99511843 0.0087848 25.54743989 0.86934459 37.25 3.25 C38.32459473 3.4668042 38.32459473 3.4668042 39.42089844 3.68798828 C61.04682002 8.22310375 80.31808196 17.0895468 97.25 31.25 C98.19617187 32.03117187 99.14234375 32.81234375 100.1171875 33.6171875 C128.63364454 58.25605265 142.28756785 96.47924046 145.25 133.25 C145.40864962 137.56767281 145.43733475 141.88280774 145.453125 146.203125 C145.45882507 147.42151062 145.46452515 148.63989624 145.47039795 149.89520264 C145.47980041 152.45681908 145.48636289 155.01844735 145.49023438 157.58007812 C145.50000377 161.50151273 145.53109809 165.42243669 145.5625 169.34375 C145.56902489 171.83853857 145.57427737 174.33333086 145.578125 176.828125 C145.5904718 177.99901672 145.6028186 179.16990845 145.61553955 180.37628174 C145.61253845 181.46801697 145.60953735 182.5597522 145.60644531 183.68457031 C145.61009094 184.6411554 145.61373657 185.59774048 145.61749268 186.58331299 C145.13780426 190.06414118 144.66211314 191.6377818 142.25 194.25 C133.66089289 197.90185537 122.45119867 196.51495325 113.30615234 196.47705078 C111.39337164 196.47648595 109.48059051 196.47680463 107.56781006 196.47793579 C102.39910717 196.47850749 97.2304979 196.46678282 92.06181669 196.45278788 C86.65129291 196.44024999 81.24076678 196.43910761 75.83023071 196.43673706 C65.59532859 196.43053127 55.3604694 196.41413265 45.12558615 196.39403808 C33.46899196 196.37165102 21.81239567 196.3606786 10.15578532 196.35064721 C-13.81283355 196.32976562 -37.78141437 196.29460718 -61.75 196.25 C-61.00919865 199.73759541 -60.2484603 203.22056312 -59.484375 206.703125 C-59.27731934 207.67910645 -59.07026367 208.65508789 -58.85693359 209.66064453 C-55.12901082 226.49960138 -46.90893511 240.13468253 -32.2734375 249.7265625 C-1.69527608 268.18706243 38.23358862 265.75379412 71.83154297 257.859375 C86.5708351 254.14553761 99.95493975 247.89865362 113.49169922 241.12939453 C114.19930389 240.77555695 114.90690857 240.42171936 115.63595581 240.05715942 C116.16859039 239.79079681 116.70122498 239.5244342 117.25 239.25 C117.3198019 247.04792241 117.37296344 254.84577033 117.40543652 262.64392757 C117.42102948 266.26574248 117.44214953 269.88734214 117.47631836 273.5090332 C117.50914149 277.0103775 117.5269008 280.511516 117.53463173 284.0130024 C117.54279505 285.98537617 117.56617711 287.95766826 117.58988953 289.92991638 C117.5913489 297.79111105 117.10347873 304.70351022 112.84765625 311.484375 C87.68851969 336.32342077 30.40036178 334.78191475 -2.32788086 334.60546875 C-14.97513281 334.48110689 -27.34062721 333.8580438 -39.75 331.25 C-40.51828125 331.0948291 -41.2865625 330.9396582 -42.078125 330.77978516 C-81.46759788 322.67553329 -113.94301577 302.10096577 -136.33251953 268.47705078 C-140.02742404 262.67186323 -143.00679246 256.55200565 -145.75 250.25 C-146.16306396 249.30205566 -146.16306396 249.30205566 -146.58447266 248.33496094 C-166.65066158 201.13889754 -164.77949276 141.55230183 -146.2265625 94.3203125 C-138.93547107 76.43650333 -127.88745437 61.29490804 -114.75 47.25 C-113.87730469 46.29996094 -113.00460937 45.34992188 -112.10546875 44.37109375 C-97.00975122 28.338963 -77.41866093 16.57189405 -56.75 9.25 C-56.10804687 9.02183594 -55.46609375 8.79367188 -54.8046875 8.55859375 C-44.63782193 5.01436771 -34.40803257 2.73836502 -23.75 1.25 C-23.09467285 1.15428711 -22.4393457 1.05857422 -21.76416016 0.95996094 C-14.53552051 0.02038933 -7.27952448 0.00747102 0 0 Z M-41.75 86.25 C-53.54383408 100.36654439 -59.91617125 115.91171252 -61.75 134.25 C-23.8 134.25 14.15 134.25 53.25 134.25 C53.49849319 121.3367421 53.49849319 121.3367421 51.625 109 C51.35659302 107.87561523 51.35659302 107.87561523 51.08276367 106.72851562 C47.55800081 92.87326896 40.03090944 81.12583076 27.7109375 73.49609375 C3.35616675 61.16407491 -23.42739702 66.60541989 -41.75 86.25 Z " fill="#393D80" transform="translate(1481.75,158.75)"/>
<path d="M0 0 C1.2683091 -0.002062 1.2683091 -0.002062 2.5622406 -0.00416565 C3.48652863 -0.00057037 4.41081665 0.0030249 5.3631134 0.00672913 C6.82680611 0.00651009 6.82680611 0.00651009 8.32006836 0.00628662 C11.55034089 0.00698414 14.780556 0.01476907 18.01081848 0.02259827 C20.24855518 0.02446302 22.48629229 0.02588665 24.72402954 0.02688599 C30.61771265 0.03070667 36.51137117 0.04053316 42.40504456 0.05158997 C48.41751269 0.0618137 54.42998479 0.06638567 60.44245911 0.07142639 C72.24260013 0.08215581 84.04272289 0.09922688 95.84284973 0.12025452 C96.0275885 0.78341171 96.21232727 1.44656891 96.40266418 2.12982178 C98.88050041 11.02308731 101.36091434 19.91563223 103.84284973 28.80775452 C104.05018234 29.55059944 104.25751495 30.29344437 104.47113037 31.05879974 C111.19685063 55.15344566 117.97111491 79.23410859 124.77761364 103.30605412 C128.79341767 117.50845949 132.80287325 131.71265838 136.81045437 145.91738605 C137.90528885 149.79797513 139.00038647 153.67848917 140.09645081 157.55873108 C142.26905871 165.25075568 144.4355399 172.94443369 146.59004211 180.64155579 C147.2007171 182.81958762 147.81362628 184.99699472 148.42915344 187.17366028 C153.92481395 206.61783795 158.2921571 226.23060231 161.84284973 246.12025452 C161.99149475 245.18403259 161.99149475 245.18403259 162.1431427 244.22889709 C164.45374686 230.03719189 167.45032102 216.19743395 171.26618958 202.34608459 C171.70485075 200.73928985 172.14333942 199.132448 172.58167076 197.52556324 C177.69245681 178.84809643 183.02267602 160.23211982 188.35710192 141.61758399 C189.78973099 136.61617254 191.21922175 131.61386409 192.64909363 126.61166382 C195.33823519 117.20580225 198.03006039 107.80071109 200.72293508 98.39591771 C204.375086 85.64026231 208.02291876 72.88337209 211.67103767 60.12656307 C217.3915258 40.12347201 223.11763325 20.12199416 228.84284973 0.12025452 C263.16284973 0.12025452 297.48284973 0.12025452 332.84284973 0.12025452 C330.80983653 6.89696517 328.69438174 13.5087587 326.24519348 20.12806702 C325.89935211 21.06969193 325.55351074 22.01131683 325.19718933 22.98147583 C324.06141646 26.07058099 322.92105675 29.1579683 321.78034973 32.24525452 C320.96996015 34.44484817 320.15965905 36.64447443 319.34944153 38.84413147 C313.27855463 55.30800462 307.12837636 71.74169008 300.95246887 88.16639709 C294.66084666 104.9045829 288.43207172 121.66572766 282.21784973 138.43275452 C281.72114759 139.77284313 281.22444349 141.11293103 280.72773743 142.45301819 C279.02227469 147.05437435 277.3168243 151.65573511 275.61159897 156.25717926 C269.63878789 172.37430068 263.64391621 188.48318254 257.64509583 204.59063721 C255.42971466 210.54045072 253.21941804 216.49213951 251.01081848 222.44447327 C248.05857846 230.40011472 245.09856446 238.35282451 242.13121033 246.30284119 C240.17400483 251.54712854 238.22104672 256.79295807 236.27302551 262.04066467 C234.02031348 268.1076295 231.75814276 274.17100219 229.49043274 280.2323761 C228.6078586 282.59592691 227.72832817 284.96061674 226.852005 287.32649231 C225.62412184 290.63979696 224.38515131 293.94875864 223.14363098 297.25697327 C222.78277908 298.23841812 222.42192719 299.21986298 222.05014038 300.23104858 C216.78602419 314.15813821 216.78602419 314.15813821 210.84284973 318.12025452 C205.94390896 319.59303907 200.79418283 319.25286117 195.72834778 319.23377991 C194.71324631 319.23392593 193.69814484 319.23407196 192.65228271 319.23422241 C189.30302277 319.23352674 185.9538187 319.22575049 182.60456848 319.21791077 C180.28000926 319.21604536 177.95544965 319.21462204 175.63088989 319.21362305 C169.51694145 319.20980754 163.40301681 319.19998547 157.28907776 319.18891907 C151.04854148 319.17868419 144.80800136 319.17412097 138.56745911 319.16908264 C126.3259122 319.15836236 114.08438294 319.14129751 101.84284973 319.12025452 C94.67871911 299.35333207 87.54876201 279.57692552 80.60139465 259.7325592 C78.58444267 253.97232157 76.56153004 248.21417861 74.53816223 242.45619202 C74.13595459 241.31156494 73.73374695 240.16693787 73.3193512 238.98762512 C69.69612949 228.68569126 66.0270311 218.40051578 62.34284973 208.12025452 C56.61696675 192.14091013 50.96757379 176.13547388 45.34284973 160.12025452 C39.79854157 144.33528465 34.2338008 128.55845948 28.59284973 112.80775452 C22.47333113 95.71553603 16.39280198 78.60963542 10.33100891 61.49687195 C9.3102198 58.61522789 8.28864181 55.73386562 7.26631165 52.85276794 C4.49904353 45.05270231 1.74541745 37.24814616 -0.98948669 29.43666077 C-2.04806933 26.43006696 -3.12490454 23.4307821 -4.20744324 20.43275452 C-4.77345741 18.82885135 -5.33879459 17.22470902 -5.90324402 15.62025452 C-6.2823568 14.59835022 -6.2823568 14.59835022 -6.66912842 13.55580139 C-8.21756419 9.07247577 -8.13316212 5.73669761 -7.15715027 1.12025452 C-4.41255779 0.20539036 -2.8229036 -0.00354191 0 0 Z " fill="#393D80" transform="translate(973.1571502685547,166.87974548339844)"/>
<path d="M0 0 C0 32.01 0 64.02 0 97 C23.76 97 47.52 97 72 97 C72.061875 107.60125 72.12375 118.2025 72.1875 129.125 C72.22846802 134.13324951 72.22846802 134.13324951 72.27026367 139.24267578 C72.27902677 141.89355101 72.28667112 144.54443027 72.29296875 147.1953125 C72.30080887 147.87874725 72.30864899 148.56218201 72.31672668 149.2663269 C72.3388194 151.2947968 72.34001856 153.32346065 72.34057617 155.35205078 C72.35056892 157.0641423 72.35056892 157.0641423 72.36076355 158.81082153 C71.94204398 162.51233582 71.00026066 164.86488763 69 168 C65.60356972 170.29876904 62.60833467 170.24266796 58.57910156 170.22705078 C56.62753143 170.22682419 56.62753143 170.22682419 54.63653564 170.22659302 C53.22123053 170.21638046 51.80592699 170.20594848 50.390625 170.1953125 C48.93902786 170.19158071 47.4874282 170.18873452 46.03582764 170.18673706 C42.22175093 170.17911364 38.40782738 170.15947635 34.59381104 170.1373291 C30.69928051 170.11684278 26.80472516 170.10772939 22.91015625 170.09765625 C15.2733678 170.07622915 7.63670539 170.04210892 0 170 C0.08426378 186.65637367 0.17952732 203.31264369 0.28752708 219.96887875 C0.33743419 227.70441187 0.38387756 235.43993555 0.421875 243.17553711 C0.45504163 249.92581706 0.49500436 256.67601857 0.54279006 263.42621142 C0.56781279 266.99317642 0.5896622 270.56009104 0.60334396 274.12711906 C-0.66908398 307.71317295 -0.66908398 307.71317295 13 337 C21.29001626 345.06596176 31.80323105 346.36088943 42.87109375 346.28515625 C52.49430557 345.83168262 61.60975973 342.60640642 70 338 C70.66 338 71.32 338 72 338 C72.04644157 346.61480626 72.08192908 355.22955978 72.10362434 363.84446049 C72.11403956 367.84516398 72.12815722 371.84578151 72.15087891 375.84643555 C72.17268826 379.71085385 72.18458563 383.57518972 72.18975449 387.43966484 C72.19343576 388.91037734 72.20062426 390.38108558 72.21146011 391.85176277 C72.22608293 393.91958315 72.22797349 395.98706747 72.22705078 398.05493164 C72.231492 399.22963516 72.23593323 400.40433868 72.24050903 401.61463928 C71.97532578 405.34730974 71.27165694 408.48205082 70 412 C54.49633583 424.33246014 27.40461335 423.23564661 8.5625 423.25 C7.76486237 423.25067474 6.96722473 423.25134949 6.14541626 423.25204468 C-21.14672033 423.21541921 -47.97776726 418.96050764 -69 400 C-70.02673828 399.11248047 -70.02673828 399.11248047 -71.07421875 398.20703125 C-89.31545657 381.39928953 -96.93920433 354.56235817 -98.18112564 330.48907852 C-98.2431866 326.84424182 -98.24787407 323.20438331 -98.22705078 319.55908203 C-98.22648475 318.17772429 -98.22680695 316.79636594 -98.22793579 315.41500854 C-98.22850284 311.71342175 -98.21685521 308.01196814 -98.20278788 304.31041193 C-98.19017086 300.42406063 -98.18910146 296.5377053 -98.18673706 292.65133667 C-98.1805542 285.31358547 -98.16418725 277.97589482 -98.14403808 270.63817012 C-98.12157886 262.27525618 -98.1106606 253.91233914 -98.10064721 245.54940248 C-98.07981768 228.36623346 -98.04470475 211.18312316 -98 194 C-96.42522478 193.20429823 -94.84947029 192.41053439 -93.27331543 191.61756897 C-92.39592461 191.17533021 -91.51853378 190.73309145 -90.61455536 190.27745152 C-86.90404191 188.46452336 -83.11534857 186.9005814 -79.28125 185.37109375 C-78.49786255 185.05471451 -77.7144751 184.73833527 -76.90734863 184.41236877 C-74.43977402 183.41686598 -71.96995409 182.42708204 -69.5 181.4375 C-67.84750416 180.77186183 -66.19515933 180.10584863 -64.54296875 179.43945312 C-58.27482756 176.91324983 -52.00144953 174.40021756 -45.72668457 171.89051819 C-44.83801949 171.53507463 -43.9493544 171.17963106 -43.03376007 170.81341648 C-42.02704884 170.41077532 -42.02704884 170.41077532 -41 170 C-42.25201202 170.00444122 -43.50402405 170.00888245 -44.79397583 170.01345825 C-56.59444438 170.05400605 -68.3948988 170.08398527 -80.19542122 170.10362434 C-86.26214629 170.11406039 -92.32881511 170.12821647 -98.39550781 170.15087891 C-104.25046212 170.17261345 -110.10536232 170.18456997 -115.96035385 170.18975449 C-118.19385505 170.19344912 -120.42735329 170.20066378 -122.66083145 170.21146011 C-125.78974044 170.22598297 -128.918426 170.22797758 -132.04736328 170.22705078 C-132.97021622 170.23424133 -133.89306915 170.24143188 -134.84388733 170.24884033 C-143.91714014 170.21976912 -143.91714014 170.21976912 -148 168 C-150.0946339 163.82938103 -150.24499587 159.96393752 -150.22705078 155.35205078 C-150.22689972 154.05115509 -150.22674866 152.7502594 -150.22659302 151.40994263 C-150.21638202 150.00506433 -150.20595007 148.60018763 -150.1953125 147.1953125 C-150.19157846 145.74657385 -150.18873333 144.29783266 -150.18673706 142.84909058 C-150.17913136 139.0514824 -150.15950952 135.25402922 -150.1373291 131.45648193 C-150.11319045 126.89176639 -150.10407508 122.32699877 -150.09242249 117.76223755 C-150.07308304 110.84138417 -150.03473945 103.92087035 -150 97 C-132.84 97 -115.68 97 -98 97 C-98.04640625 92.43800781 -98.0928125 87.87601562 -98.140625 83.17578125 C-98.16106853 80.28187822 -98.18032447 77.38806449 -98.1953125 74.49414062 C-98.21920408 69.90288757 -98.2474365 65.31195427 -98.30175781 60.72094727 C-98.34528908 57.01860747 -98.36915229 53.31661066 -98.37950897 49.61403465 C-98.38688742 48.20303131 -98.40129614 46.79204628 -98.42292023 45.38118935 C-98.45204479 43.40185552 -98.45363467 41.42217498 -98.45410156 39.44262695 C-98.46298401 38.31677689 -98.47186646 37.19092682 -98.48101807 36.03096008 C-97.88418336 32.27022367 -96.66897502 30.67601335 -94 28 C-87.81113326 24.0559707 -80.06261277 22.37998432 -73.07421875 20.390625 C-71.94032715 20.06229675 -70.80643555 19.73396851 -69.63818359 19.39569092 C-65.98971894 18.34089876 -62.33871373 17.29523215 -58.6875 16.25 C-56.19036505 15.53045445 -53.69337621 14.81040168 -51.1965332 14.08984375 C-45.1874456 12.35720146 -39.17630329 10.63181632 -33.16455078 8.90844727 C-29.57089949 7.87681816 -25.97894393 6.8394373 -22.38761902 5.79974365 C-19.15498533 4.86392441 -15.92127108 3.93188146 -12.6875 3 C-11.58301514 2.68063477 -10.47853027 2.36126953 -9.34057617 2.03222656 C-8.36580322 1.7534668 -7.39103027 1.47470703 -6.38671875 1.1875 C-5.57420654 0.95417969 -4.76169434 0.72085938 -3.92456055 0.48046875 C-2 0 -2 0 0 0 Z " fill="#393D80" transform="translate(281,70)"/>
<path d="M0 0 C1.9082094 1.9082094 1.13787141 5.32854552 1.14526367 7.85546875 C1.14862228 8.57267593 1.1519809 9.28988312 1.15544128 10.02882385 C1.16498734 12.4150666 1.16689692 14.80123931 1.16796875 17.1875 C1.17118134 18.84602894 1.17454541 20.5045576 1.17805481 22.16308594 C1.18405697 25.65023453 1.18589385 29.13735832 1.18530273 32.62451172 C1.18520163 37.07516517 1.19879539 41.52565722 1.21607494 45.97627258 C1.22724757 49.40798662 1.22922025 52.83966247 1.22869301 56.27139282 C1.22986745 57.910701 1.23425894 59.55001034 1.24202538 61.18930054 C1.3124901 77.61467218 1.3124901 77.61467218 -1 85 C-3.39967343 87.39967343 -3.96546206 87.29618607 -7.25 87.3125 C-11.56584248 87.23819568 -15.48684542 86.53518279 -19.6875 85.5625 C-38.54352872 81.28167186 -58.76208741 82.06038332 -75.6875 92.1875 C-92.92692888 103.90337624 -101.64045726 121.97756539 -105.8125 141.875 C-107.84831371 152.70799658 -108.14639611 163.37620406 -108.1418457 174.3762207 C-108.14488319 175.90651041 -108.14840626 177.43679922 -108.15237427 178.96708679 C-108.16021405 182.24307159 -108.16538924 185.51904575 -108.16866493 188.79503822 C-108.1746103 193.97660731 -108.19118018 199.15810902 -108.21000671 204.33964539 C-108.21634235 206.11792847 -108.22266799 207.89621159 -108.22898388 209.67449474 C-108.2337326 211.00938696 -108.2337326 211.00938696 -108.23857725 212.3712467 C-108.28058144 224.4213959 -108.31366832 236.47151081 -108.32592773 248.52172852 C-108.33430247 256.67027735 -108.35676068 264.81865613 -108.3952834 272.96711987 C-108.41504331 277.27362801 -108.42744837 281.57988198 -108.42244911 285.88643837 C-108.41781011 289.9307427 -108.43156643 293.97456341 -108.45946121 298.01877022 C-108.46638231 299.50182762 -108.46648964 300.98493494 -108.45926094 302.46799088 C-108.45038625 304.4932152 -108.46839983 306.51850404 -108.48774719 308.5436554 C-108.49013555 309.67645589 -108.4925239 310.80925638 -108.49498463 311.97638416 C-109.11981195 315.7173352 -110.31012118 317.36091659 -113 320 C-121.28106279 324.02601246 -133.58294967 322.24767832 -142.5703125 322.1953125 C-144.4617396 322.19157659 -146.35316865 322.18873235 -148.24459839 322.18673706 C-153.19292663 322.17914606 -158.14113516 322.1595371 -163.0894165 322.1373291 C-168.15074037 322.1167724 -173.21208381 322.10771444 -178.2734375 322.09765625 C-188.18234391 322.07628645 -198.09116195 322.04220599 -208 322 C-208.04575657 282.33815866 -208.0810086 242.67632076 -208.10213066 203.01445832 C-208.10463214 198.33426449 -208.10722077 193.65407071 -208.10986328 188.97387695 C-208.1103879 188.0421167 -208.11091252 187.11035644 -208.11145304 186.15036102 C-208.12016068 171.0543915 -208.13593263 155.95843718 -208.15430559 140.86247668 C-208.17299466 125.37789357 -208.18411462 109.89331842 -208.18817699 94.40872449 C-208.19092411 84.85039919 -208.19960731 75.29211686 -208.21583293 65.73380478 C-208.22638756 59.18337574 -208.22960408 52.63296897 -208.22700275 46.08253203 C-208.22571909 42.3007105 -208.22771618 38.51896415 -208.23841095 34.73715591 C-208.24991297 30.64005415 -208.24598594 26.54311332 -208.24050903 22.44599915 C-208.24633472 21.24658748 -208.2521604 20.04717582 -208.25816262 18.81141835 C-208.25418052 17.71464369 -208.25019842 16.61786903 -208.24609566 15.48785877 C-208.2468551 14.54197543 -208.24761454 13.59609209 -208.24839699 12.62154561 C-207.97457377 9.7316553 -207.27942302 7.59900056 -206 5 C-203.33912522 3.15800402 -201.18349546 2.75085542 -197.98834229 2.75949097 C-197.2003273 2.75674164 -196.41231232 2.75399231 -195.60041809 2.75115967 C-194.74518051 2.75835022 -193.88994293 2.76554077 -193.00878906 2.77294922 C-192.10112289 2.77265717 -191.19345673 2.77236511 -190.25828552 2.77206421 C-187.26063449 2.77345662 -184.26323257 2.78901375 -181.265625 2.8046875 C-179.18626033 2.80841794 -177.10689391 2.81126477 -175.02752686 2.81326294 C-169.55632672 2.82089692 -164.08523287 2.84054346 -158.61407471 2.8626709 C-152.04868262 2.88673261 -145.48325499 2.89591143 -138.91783142 2.90757751 C-128.94514704 2.92696792 -118.97269584 2.96529224 -109 3 C-108.67 21.48 -108.34 39.96 -108 59 C-106.02 54.38 -104.04 49.76 -102 45 C-91.3626216 25.01952498 -75.36658004 7.56562223 -53.18359375 0.7734375 C-36.04381069 -4.09012654 -17.20626515 -5.27950584 0 0 Z " fill="#393D80" transform="translate(615,164)"/>
</svg>
